<svg xmlns="http://www.w3.org/2000/svg" xmlns:xlink="http://www.w3.org/1999/xlink" width="320" height="320" viewBox="0 0 320 320" fill="none"><g opacity="0.88"><path d="M149.608 118.432C155.347 115.119 164.653 115.119 170.392 118.432L270.851 176.432C278.504 180.851 278.504 188.014 270.851 192.432L170.392 250.432C164.653 253.746 155.347 253.746 149.608 250.432L49.1488 192.432C41.496 188.014 41.496 180.851 49.1488 176.432L149.608 118.432Z"   fill="url(#linear_fill_hNAuMQu4VT2wjNM2m0-aB)" ></path></g><g opacity="0.7"><path d="M149.607 91.1649C155.347 87.8513 164.653 87.8513 170.392 91.1649L247.241 135.534C254.894 139.952 254.894 147.116 247.241 151.534L170.392 195.903C164.653 199.217 155.347 199.217 149.607 195.903L72.7582 151.534C65.1054 147.116 65.1054 139.952 72.7582 135.534L149.607 91.1649Z"   fill="url(#linear_fill_Rpn-BAmr6IPw4ZN3ozg0Y)" ></path></g><g opacity="0.7"><path d="M149.608 69.5692C155.348 66.2556 164.653 66.2556 170.393 69.5692L220.684 98.6048C228.337 103.023 228.337 110.187 220.684 114.605L170.393 143.641C164.653 146.954 155.348 146.954 149.608 143.641L99.3167 114.605C91.6639 110.187 91.6639 103.023 99.3167 98.6048L149.608 69.5692Z"   fill="url(#linear_fill_RsZVa-gqD5kC6EdJOPvnJ)" fill-opacity="0.7"></path></g><g opacity="0.7"><path d="M149.608 118.43C155.348 115.117 164.654 115.117 170.394 118.43L192.226 131.032L170.394 143.642C164.654 146.955 155.348 146.955 149.608 143.642L127.776 131.036L149.608 118.43Z"   fill="url(#linear_fill_xeqMpQSe8T7ISiW2kyQbj)" fill-opacity="0.7"></path></g><defs><linearGradient id="linear_fill_hNAuMQu4VT2wjNM2m0-aB" x1="26.7060546875" y1="156.6875" x2="261.0751953125" y2="188.55078125" gradientUnits="userSpaceOnUse"><stop offset="0" stop-color="#1C64FD"  /><stop offset="1" stop-color="#8059F3"  /></linearGradient><linearGradient id="linear_fill_Rpn-BAmr6IPw4ZN3ozg0Y" x1="51.9404296875" y1="121.041015625" x2="241.939453125" y2="146.873046875" gradientUnits="userSpaceOnUse"><stop offset="0" stop-color="#12B886"  /><stop offset="1" stop-color="#1C64FD"  /></linearGradient><linearGradient id="linear_fill_RsZVa-gqD5kC6EdJOPvnJ" x1="80.328125" y1="90.021484375" x2="220.4150390625" y2="109.06640625" gradientUnits="userSpaceOnUse"><stop offset="0" stop-color="#1C64FD"  /><stop offset="1" stop-color="#8059F3"  /></linearGradient><linearGradient id="linear_fill_xeqMpQSe8T7ISiW2kyQbj" x1="149.998046875" y1="115.9453125" x2="171.91796875" y2="143.2109375" gradientUnits="userSpaceOnUse"><stop offset="0" stop-color="#8059F3"  /><stop offset="1" stop-color="#1C64FD"  /></linearGradient></defs></svg>